<svg width="459" height="150" viewBox="0 0 459 150" xmlns="http://www.w3.org/2000/svg"><g fill="none" fill-rule="evenodd"><path d="M.78 57.96C.78 26.04 27.6.06 59.52.06c17.64 0 30.24 6.9 39.66 15.96L88.02 27.18c-6.78-6.36-15.96-11.28-28.5-11.28C36.24 15.9 18 34.68 18 57.96s18.24 42.06 41.52 42.06c15.12 0 23.7-6.06 29.22-11.58 4.5-4.5 7.5-11.04 8.64-19.92H59.52V52.74h53.22c.54 2.82.84 6.24.84 9.9 0 11.88-3.24 26.52-13.68 36.96-10.14 10.56-23.16 16.26-40.38 16.26C27.6 115.86.78 89.88.78 57.96z" fill="#4285F4"/><path d="M156.6 41.34c-20.64 0-37.44 15.66-37.44 37.26 0 21.48 16.8 37.26 37.44 37.26 20.64 0 37.44-15.84 37.44-37.26 0-21.6-16.8-37.26-37.44-37.26zm0 59.82c-11.28 0-21.06-9.3-21.06-22.56 0-13.44 9.72-22.56 21.06-22.56 11.28 0 21.06 9.18 21.06 22.56 0 13.26-9.72 22.56-21.06 22.56z" fill="#EA4335"/><path d="M238.26 41.34c-20.64 0-37.44 15.66-37.44 37.26 0 21.48 16.8 37.26 37.44 37.26 20.64 0 37.44-15.84 37.44-37.26-.06-21.6-16.86-37.26-37.44-37.26zm0 59.82c-11.28 0-21.06-9.3-21.06-22.56 0-13.44 9.72-22.56 21.06-22.56 11.34 0 21.06 9.18 21.06 22.56-.06 13.26-9.78 22.56-21.06 22.56z" fill="#FBBC05"/><path d="M338.4 43.56v6.06h-.54c-3.66-4.38-10.74-8.34-19.62-8.34-18.66 0-35.7 16.38-35.7 37.44 0 20.88 17.1 37.14 35.7 37.14 8.88 0 15.96-3.96 19.62-8.46h.54v5.34c0 14.28-7.62 21.9-19.92 21.9-10.02 0-16.26-7.2-18.78-13.26l-14.28 5.94c4.08 9.9 14.94 22.02 33.06 22.02 19.2 0 35.46-11.28 35.46-38.82V43.56H338.4zm-18.78 57.6c-11.28 0-20.76-9.48-20.76-22.44 0-13.14 9.48-22.74 20.76-22.74 11.16 0 19.92 9.6 19.92 22.74 0 13.02-8.76 22.44-19.92 22.44z" fill="#4285F4"/><path d="M365.22 4.02h16.38v109.56h-16.38V4.02z" fill="#34A853"/><path d="M426.54 101.16c-8.34 0-14.28-3.84-18.06-11.28l49.86-20.64-1.68-4.26c-3.18-8.28-12.66-23.64-31.98-23.64-19.2 0-35.16 15.12-35.16 37.26 0 20.88 15.84 37.26 36.96 37.26 17.1 0 26.94-10.44 31.08-16.5l-12.72-8.46c-4.2 6.18-10.02 10.26-18.3 10.26zm-1.32-45.42c6.48 0 12 3.24 13.86 7.92l-33.3 13.86c-.42-14.46 11.16-21.78 19.44-21.78z" fill="#EA4335"/><path d="M0 0h458.82v150H0V0z"/></g></svg>